<?xml version="1.0" encoding="UTF-8" standalone="no"?>
<!-- Created with Inkscape (http://www.inkscape.org/) -->

<svg
   xmlns:dc="http://purl.org/dc/elements/1.1/"
   xmlns:cc="http://creativecommons.org/ns#"
   xmlns:rdf="http://www.w3.org/1999/02/22-rdf-syntax-ns#"
   xmlns:svg="http://www.w3.org/2000/svg"
   xmlns="http://www.w3.org/2000/svg"
   xmlns:sodipodi="http://sodipodi.sourceforge.net/DTD/sodipodi-0.dtd"
   xmlns:inkscape="http://www.inkscape.org/namespaces/inkscape"
   version="1.1"
   id="svg2199"
   width="679"
   height="679"
   viewBox="0 0 679 679"
   sodipodi:docname="Fsociety.svg"
   inkscape:version="0.92.4 (5da689c313, 2019-01-14)">
  <metadata
     id="metadata2205">
    <rdf:RDF>
      <cc:Work
         rdf:about="">
        <dc:format>image/svg+xml</dc:format>
        <dc:type
           rdf:resource="http://purl.org/dc/dcmitype/StillImage" />
        <dc:title></dc:title>
      </cc:Work>
    </rdf:RDF>
  </metadata>
  <defs
     id="defs2203">
    <filter
       style="color-interpolation-filters:sRGB;"
       inkscape:label="Colorize"
       id="filter3028">
      <feComposite
         in2="SourceGraphic"
         operator="arithmetic"
         k1="9.5"
         k2="8.5"
         result="composite1"
         id="feComposite3014" />
      <feColorMatrix
         in="composite1"
         values="1"
         type="saturate"
         result="colormatrix1"
         id="feColorMatrix3016" />
      <feFlood
         flood-opacity="1"
         flood-color="rgb(255,255,255)"
         result="flood1"
         id="feFlood3018" />
      <feBlend
         in="flood1"
         in2="colormatrix1"
         mode="multiply"
         result="blend1"
         id="feBlend3020" />
      <feBlend
         in2="blend1"
         mode="screen"
         result="blend2"
         id="feBlend3022" />
      <feColorMatrix
         in="blend2"
         values="1"
         type="saturate"
         result="colormatrix2"
         id="feColorMatrix3024" />
      <feComposite
         in="colormatrix2"
         in2="SourceGraphic"
         operator="in"
         k2="1"
         result="composite2"
         id="feComposite3026" />
    </filter>
  </defs>
  <sodipodi:namedview
     pagecolor="#ffffff"
     bordercolor="#666666"
     borderopacity="1"
     objecttolerance="10"
     gridtolerance="10"
     guidetolerance="10"
     inkscape:pageopacity="0"
     inkscape:pageshadow="2"
     inkscape:window-width="1920"
     inkscape:window-height="1001"
     id="namedview2201"
     showgrid="false"
     inkscape:zoom="0.98307629"
     inkscape:cx="280.1082"
     inkscape:cy="394.55464"
     inkscape:window-x="-9"
     inkscape:window-y="-9"
     inkscape:window-maximized="1"
     inkscape:current-layer="svg2199" />
  <rect
     style="fill:#000000;fill-opacity:1;fill-rule:nonzero;stroke:none;stroke-width:6.04724407;stroke-miterlimit:4;stroke-dasharray:none;stroke-opacity:1"
     id="rect3030"
     width="853.44342"
     height="773.08344"
     x="-83.411636"
     y="-54.412052" />
  <g
     id="g2768"
     style="filter:url(#filter3028)">
    <path
       style="fill:#666666"
       d="M 169.02965,536.01783 C 168.59394,535.18302 168.29652,424.925 168.36872,291 L 168.5,47.5 341.25,47.440673 c 120.93601,-0.04153 172.77585,0.258403 172.8362,1 0.0685,0.841498 -0.024,31.299473 -0.11398,37.559327 -0.0236,1.640432 -0.0396,56.56831 -0.0172,59 0.008,0.825 0.0657,6.45 0.12904,12.5 0.0634,6.05 0.0171,11.45 -0.10283,12 -0.11992,0.55 -0.12672,1.45 -0.0151,2 0.11161,0.55 0.15734,12.025 0.10164,25.5 -0.0557,13.475 -0.0988,24.95 -0.0958,25.5 0.003,0.55 0.008,14.95 0.0119,32 0.004,17.05 0.007,31.9 0.009,33 10e-4,1.1 0.0615,5.66159 0.13381,10.13686 0.0723,4.47527 -0.15892,8.60667 -0.51381,9.1809 -0.35489,0.57422 -0.30041,1.25708 0.12106,1.51745 0.42147,0.26038 0.64796,8.72897 0.50332,18.8191 -0.14464,10.09013 -0.25967,19.02069 -0.25562,19.84569 0.004,0.825 -0.004,3.75 -0.018,6.5 -0.0139,2.75 -0.0179,5.45 -0.009,6 0.0195,1.17854 0.0383,147.29972 0.0192,149.5 -0.007,0.825 0.0776,6.45 0.18828,12.5 0.11071,6.05 -0.0925,12.15155 -0.45157,13.559 l -344.68098,0.9588 z m 116.75553,-25.87835 c 1.93758,-0.11826 2.12772,-0.4337 1.25,-2.07374 C 286.46583,507.0019 286,505.2019 286,504.06574 286,502.88129 285.34951,502 284.47525,502 c -0.83861,0 -1.9215,-1.0125 -2.40642,-2.25 C 280.99252,497.00329 266.64296,483 264.90464,483 263.18231,483 260,479.97967 260,478.34501 260,477.60526 259.24793,477 258.32874,477 256.05346,477 253,474.08596 253,471.91456 c 0,-1.07987 -0.88151,-1.90065 -2.25,-2.09501 -1.54933,-0.22004 -2.54796,-1.33164 -3.2068,-3.56955 -0.61903,-2.10269 -1.58983,-3.25 -2.75,-3.25 -0.98626,0 -1.7932,-0.59634 -1.7932,-1.32521 0,-0.72886 -2.025,-3.93301 -4.5,-7.12032 -2.52782,-3.25533 -4.5,-6.86727 -4.5,-8.24151 0,-1.34552 -1.125,-3.92135 -2.5,-5.72407 -1.375,-1.80272 -2.5,-4.05228 -2.5,-4.99902 0,-0.94675 -0.42617,-2.51766 -0.94704,-3.49092 -0.52087,-0.97325 -1.131,-4.65617 -1.35585,-8.18425 -0.22484,-3.52809 -0.74681,-7.2022 -1.15994,-8.1647 -0.41313,-0.9625 -0.49213,-2.425 -0.17554,-3.25 0.31658,-0.825 0.1908,-1.5 -0.27952,-1.5 -0.76345,0 -1.22219,-1.6209 -2.40828,-8.50946 -0.1903,-1.1052 -0.90802,-3.05961 -1.59494,-4.34314 -0.68693,-1.28352 -0.97711,-3.41677 -0.64487,-4.74054 C 220.77245,392.05846 220.59547,391 220.0316,391 218.43428,391 214,383.29526 214,380.51987 214,378.92847 213.43819,378 212.47525,378 c -0.83861,0 -1.93294,-1.07361 -2.43183,-2.3858 -0.4989,-1.31219 -3.44454,-5.22959 -6.54588,-8.70532 -10.0284,-11.23903 -8.99393,-18.91477 -9.0242,66.95953 -0.0147,41.59737 0.27991,75.85659 0.6546,76.13159 0.57587,0.42266 83.91682,0.55088 90.65724,0.13948 z m 70.80832,-0.39965 C 357.00041,509.33292 356.56099,509 355.61701,509 c -0.94398,0 -3.11954,-0.72563 -4.83458,-1.61251 -5.03793,-2.60522 -14.49533,-2.67682 -19.00212,-0.14386 -2.07917,1.16856 -3.78026,2.37929 -3.78021,2.69051 1.5e-4,0.84986 27.73773,0.66136 28.5934,-0.19431 z m 131.11505,-75.66919 -0.0196,-75.92936 -2.21454,1.67043 c -2.02547,1.52781 -4.40266,4.73489 -6.96151,9.39179 -0.54292,0.98808 -1.55542,1.7965 -2.25,1.7965 C 475.56829,371 475,371.97296 475,373.16214 475,375.68327 470.36339,384 468.95785,384 468.43103,384 468,385.48899 468,387.30887 c 0,1.81988 -0.66069,4.18238 -1.4682,5.25 -0.8075,1.06762 -1.4825,2.72863 -1.5,3.69113 -0.0175,0.9625 -0.66467,1.75 -1.43818,1.75 -0.9153,0 -1.22327,0.70023 -0.88198,2.00533 0.28843,1.10293 -0.0174,2.65821 -0.67971,3.45619 -0.66226,0.79798 -0.91503,1.91861 -0.56171,2.4903 1.15862,1.87469 -2.44532,23.94301 -4.51058,27.62004 -1.0778,1.91893 -1.95964,4.58179 -1.95964,5.91746 0,3.38153 -3.13835,9.35627 -5.29179,10.07443 -1.12995,0.37683 -1.59256,1.22528 -1.2524,2.29701 0.3291,1.0369 -1.0126,3.76495 -3.44146,6.99746 -4.25291,5.66009 -20.86382,22.25162 -25.01435,24.98518 -1.375,0.90557 -3.32016,2.66127 -4.32258,3.90155 C 414.675,488.98523 412.7625,490 411.42742,490 409.69714,490 409,490.55354 409,491.92742 c 0,1.06008 -1.125,2.81234 -2.5,3.89392 -1.375,1.08158 -2.51001,2.57674 -2.52224,3.32258 -0.0122,0.74584 -0.90222,2.48108 -1.97776,3.85608 -1.07554,1.375 -1.96553,2.99373 -1.97776,3.59719 -0.0122,0.60345 -1.03474,1.58549 -2.27224,2.18232 -1.65467,0.79801 9.95147,1.10304 43.86409,1.15281 l 46.1141,0.0677 -0.0196,-75.92936 z M 359.3891,417.09238 c 1.2541,-1.04106 1.98806,-1.11522 2.81848,-0.2848 0.83043,0.83043 1.40798,0.73286 2.21784,-0.37469 0.60225,-0.82364 3.79041,-2.19719 7.08479,-3.05235 3.29439,-0.85515 6.66479,-2.08308 7.48979,-2.72874 2.69499,-2.10914 7.77609,-4.6518 9.29588,-4.6518 0.81802,0 1.75536,-1.06803 2.08299,-2.37341 0.34614,-1.37911 1.85782,-2.8962 3.60841,-3.62132 1.657,-0.68635 3.01272,-1.85484 3.01272,-2.59665 0,-0.74181 1.31618,-2.32184 2.92485,-3.51118 2.57845,-1.90633 3.87601,-4.26602 4.03729,-7.34207 0.0981,-1.87166 -25.1289,-2.33927 -28.51235,-0.5285 -1.92851,1.03211 -2.67347,1.03238 -3.9157,0.001 C 370.40978,385.0952 370,385.06995 370,385.93379 c 0,0.64827 -2.1375,2.13276 -4.75,3.29887 -4.17573,1.86387 -6.68439,2.12714 -20.75,2.17764 -13.14951,0.0472 -16.84624,-0.2662 -20.75,-1.75914 -2.6125,-0.99912 -4.75,-2.23793 -4.75,-2.75292 0,-0.51499 -1.09942,-0.66041 -2.44316,-0.32315 -1.34375,0.33726 -3.03125,0.23633 -3.75,-0.22429 -1.17706,-0.75432 -3.46926,-1.18334 -7.80684,-1.46117 -3.68998,-0.23635 -13.61623,0.72577 -14.72933,1.42767 -0.67614,0.42635 -2.0697,0.32544 -3.09681,-0.22425 -2.70407,-1.44718 -4.3169,0.4356 -2.78367,3.24959 2.0601,3.78095 15.51764,16.59612 18.11172,17.2472 1.37395,0.34484 2.49809,1.02819 2.49809,1.51857 0,0.49037 0.64286,0.89159 1.42857,0.89159 0.78572,0 2.03565,0.60708 2.77763,1.34906 1.36277,1.36277 6.4904,3.3242 10.89731,4.16847 1.31807,0.25251 2.94492,1.20614 3.61523,2.11917 1.01964,1.38886 1.47711,1.44565 2.80019,0.34759 1.31587,-1.09207 1.83815,-1.05578 3.11003,0.2161 2.11501,2.11501 27.19185,2.024 29.76014,-0.10801 z M 335.2,383 c 0.99,0 1.8,0.45381 1.8,1.00847 0,0.59779 0.81448,0.49983 2,-0.24054 1.57859,-0.98585 2.41164,-0.99195 3.95364,-0.029 1.23008,0.7682 2.17785,0.85729 2.55902,0.24055 0.86341,-1.39703 4.21202,-1.21234 4.90401,0.27048 0.46666,1 0.7,1 1.16666,0 0.69874,-1.4973 4.044,-1.66202 4.92141,-0.24233 0.38609,0.6247 1.19577,0.43468 2.13045,-0.5 0.82922,-0.82922 2.33822,-1.50767 3.35333,-1.50767 1.01512,0 3.87545,-0.87007 6.35629,-1.93348 3.04306,-1.3044 5.91692,-1.78386 8.83291,-1.47362 29.55924,3.14491 39.74661,3.26446 68.62955,0.80536 2.581,-0.21974 5.93023,-0.46383 7.44273,-0.54242 1.55081,-0.0806 2.75,-0.7232 2.75,-1.47368 0,-0.73194 1.43026,-2.07042 3.17836,-2.97439 3.74791,-1.93812 9.49112,-7.79103 10.37372,-10.57186 0.34176,-1.07681 1.73738,-2.4663 3.10136,-3.08778 1.6522,-0.75279 2.32543,-1.72094 2.01696,-2.90052 -0.25466,-0.97381 0.22209,-3.7004 1.05943,-6.05909 1.70389,-4.79963 2.6122,-23.4591 1.18489,-24.34123 C 476.41162,327.13636 476,325.53618 476,323.89132 c 0,-3.102 -2.24969,-8.28386 -4.62967,-10.66385 C 470.61665,312.47379 470,311.21656 470,310.43362 470,308.90176 460.76502,299 459.33632,299 c -0.47414,0 -1.30627,-1.0125 -1.84919,-2.25 -0.55853,-1.27308 -2.0726,-2.40015 -3.48713,-2.59582 -1.375,-0.1902 -2.9914,-0.74879 -3.59201,-1.24132 -2.10753,-1.72829 -2.16287,0.2355 -0.12374,4.39115 1.13242,2.30779 2.41598,4.95218 2.85237,5.87641 0.43638,0.92423 1.09745,4.64794 1.46905,8.2749 0.53797,5.25093 0.31042,7.40436 -1.1169,10.56958 -0.98588,2.18631 -2.37462,3.9751 -3.08608,3.9751 -0.71146,0 -1.88323,1.2375 -2.60394,2.75 -1.94967,4.09163 -12.74681,9.13195 -19.70436,9.19838 -4.243,0.0405 -6.09456,-0.47387 -8.60891,-2.39166 -1.97499,-1.50639 -3.9796,-2.24027 -5.2278,-1.91385 -1.93515,0.50605 -9.33067,-3.33391 -10.70565,-5.55868 -0.33884,-0.54826 -1.30703,-0.7317 -2.15152,-0.40764 -0.84449,0.32406 -2.51757,0.13544 -3.71797,-0.41916 -1.2004,-0.5546 -3.30754,-1.51113 -4.68254,-2.12562 -1.375,-0.61449 -3.175,-1.51837 -4,-2.00862 -2.6852,-1.59567 -6.45655,-2.96383 -8.5,-3.08362 -9.42821,-0.55266 -14.17645,0.73549 -17.90735,4.85809 C 361.54621,326.05393 360.08477,327 359.34501,327 358.60526,327 358,327.83026 358,328.84501 c 0,2.73594 -3.45558,5.46256 -5.92834,4.67774 -1.13941,-0.36164 -2.07166,-0.2318 -2.07166,0.28854 0,0.52034 -1.28994,1.48038 -2.86653,2.13343 -2.27286,0.94144 -3.98147,0.89309 -8.25,-0.23347 -4.46297,-1.17789 -6.58037,-2.60775 -12.38347,-8.36248 l -7,-6.94164 -7.5,0.0464 c -4.125,0.0255 -7.725,0.29519 -8,0.59923 -1.20912,1.33677 -7.86385,4.94717 -9.11803,4.94682 -1.19264,-3.3e-4 -8.18026,3.12509 -16.90005,7.55904 -1.62643,0.82703 -3.09461,0.95779 -4.14623,0.36927 -1.1165,-0.62482 -1.78902,-0.49191 -2.14009,0.42295 C 270.8113,336.65531 264.40855,339 259,339 c -5.24749,0 -12,-2.38058 -12,-4.23057 0,-0.55148 -0.95026,-0.75419 -2.1117,-0.45047 -1.56283,0.40869 -3.4036,-0.6562 -7.08214,-4.09704 -4.11698,-3.85096 -4.89974,-5.13096 -4.55871,-7.45457 0.23235,-1.58309 -0.16755,-3.28607 -0.91786,-3.90878 -1.80739,-1.5 -1.67379,-3.51251 0.28303,-4.26341 1.29945,-0.49865 1.37483,-0.90536 0.38813,-2.09426 -0.7373,-0.88839 -0.90611,-2.17678 -0.42427,-3.23817 0.44013,-0.9695 0.86701,-2.43773 0.94863,-3.26273 0.44514,-4.49954 2.00622,-8.27279 4.106,-9.92447 C 238.934,295.05068 240,293.66564 240,292.99767 c 0,-2.72323 -9.89928,1.99607 -9.96858,4.75233 -0.0173,0.6875 -0.50545,1.25 -1.08482,1.25 C 227.19513,299 212,314.98004 212,316.82199 c 0,0.94256 -1.22042,3.5057 -2.71204,5.69588 -2.60234,3.82106 -2.71358,4.51182 -2.75,17.07716 -0.0279,9.62514 0.32291,13.53019 1.32392,14.73727 0.74903,0.90322 1.08331,2.36816 0.74284,3.25541 -0.39638,1.03295 0.28274,2.32253 1.88812,3.58532 1.37894,1.08467 2.50716,2.59352 2.50716,3.35299 0,1.74622 8.48208,10.17482 11.06407,10.99432 1.06476,0.33794 1.93593,1.25911 1.93593,2.04705 0,0.78793 0.40194,1.43261 0.89319,1.43261 0.49126,0 7.35376,0.70178 15.25,1.55951 18.39504,1.99816 36.94429,2.00764 53.35681,0.0273 15.97143,-1.92716 19.89051,-1.92268 25,0.0286 2.2,0.84015 5.06909,1.68698 6.37575,1.88185 1.30666,0.19487 2.85916,0.83773 3.45,1.42857 0.71617,0.71617 1.40758,0.74092 2.07425,0.0743 0.55,-0.55 1.81,-1 2.8,-1 z m -22.47706,-73.76567 c -0.62914,-5.58173 1.02484,-9.69661 5.621,-13.98433 1.91608,-1.7875 3.72437,-3.25 4.0184,-3.25 0.29404,0 1.74851,-1.125 3.23216,-2.5 1.48365,-1.375 3.30684,-2.5 4.05152,-2.5 0.74469,0 1.35398,-0.59048 1.35398,-1.31217 0,-0.72169 0.9,-3.17496 2,-5.45169 1.1,-2.27674 2,-5.42127 2,-6.98783 0,-1.56657 0.52093,-3.36924 1.15762,-4.00593 0.86157,-0.86157 0.86885,-1.50555 0.0285,-2.51815 -0.85043,-1.0247 -0.77045,-1.87264 0.324,-3.43519 1.23198,-1.7589 1.24336,-2.24876 0.0748,-3.21861 -0.75812,-0.62918 -1.14736,-2.02742 -0.86499,-3.1072 C 336.07371,255.61014 335.73084,255 334.61663,255 333.55889,255 333,255.86428 333,257.5 c 0,1.375 -0.35819,2.5 -0.79599,2.5 -0.43779,0 -0.73376,2.5875 -0.6577,5.75 0.24068,10.00726 -0.81011,13.48786 -5.61274,18.59141 -2.41115,2.56223 -4.92726,4.65859 -5.59135,4.65859 -0.66409,0 -1.5018,0.92743 -1.86157,2.06096 -0.35976,1.13352 -1.67159,2.52454 -2.91515,3.09115 -3.8054,1.73386 -8.10117,14.78076 -5.41356,16.4418 0.46643,0.28827 0.84806,1.42412 0.84806,2.52412 0,1.2166 0.43689,1.72999 1.11536,1.31067 0.68448,-0.42303 0.9192,-2.4297 0.60758,-5.19437 z m 67.24637,2.34639 c 0.5059,-1.33061 1.70103,-2.85648 2.65586,-3.39083 1.6082,-0.89999 1.61541,-1.09217 0.0979,-2.60965 -0.90096,-0.90097 -1.40155,-2.25458 -1.11243,-3.00803 0.28913,-0.75345 0.045,-1.66698 -0.54249,-2.03008 -0.58749,-0.36309 -1.06883,-1.42111 -1.06964,-2.35115 C 379.99662,295.99969 370.83575,287 368.60712,287 c -1.00812,0 -2.309,-1.43559 -3.17157,-3.5 -0.80431,-1.925 -1.91749,-3.5 -2.47372,-3.5 -1.20683,0 -3.05199,-4.32187 -3.62896,-8.5 -0.8872,-6.42469 -1.39952,-11.11588 -1.50559,-13.7861 -0.0629,-1.58436 -0.58872,-2.60878 -1.21897,-2.375 -0.60957,0.2261 -0.9984,0.90958 -0.86406,1.51884 0.13433,0.60926 0.47564,6.26879 0.75846,12.57673 l 0.51421,11.46898 3.74154,3.52677 c 2.05785,1.93972 4.97904,4.46911 6.49154,5.62086 1.5125,1.15174 2.75,2.68764 2.75,3.41309 0,0.72546 1.15465,1.60881 2.5659,1.96301 3.49388,0.87691 5.43596,5.86257 5.04297,12.9462 -0.32529,5.86346 0.77972,7.36494 2.36044,3.20734 z m -71.05264,-29.86369 c -0.22917,-0.15563 -1.20417,-0.88573 -2.16667,-1.62244 -1.49798,-1.14658 -1.75,-1.10583 -1.75,0.28297 0,0.99737 0.83473,1.62244 2.16667,1.62244 1.19166,0 1.97916,-0.12734 1.75,-0.28297 z m 74.79391,-1.71827 c 0.48206,-1.84343 9.56452,-7.72124 10.6177,-6.87137 0.25396,0.20494 1.3827,-0.46084 2.50831,-1.47951 2.76135,-2.49898 23.53515,-5.47345 24.72955,-3.54086 0.30354,0.49114 2.71465,0.89298 5.35802,0.89298 3.29193,0 5.60718,0.63011 7.34871,2 1.39842,1.1 3.23255,2 4.07584,2 0.84329,0 1.81137,0.45 2.15129,1 0.33992,0.55 1.12253,1 1.73913,1 1.51687,0 -5.19132,-5.98097 -7.89073,-7.0353 -1.5173,-0.59263 -2.35728,-2.05778 -2.84928,-4.96992 -0.38373,-2.27125 -0.44389,-4.38334 -0.13371,-4.69353 0.31019,-0.31018 -0.0951,-1.50499 -0.90072,-2.65512 C 429.65911,254.496 429,252.31924 429,250.80888 c 0,-1.90919 -0.41593,-2.5865 -1.36475,-2.22241 -0.75295,0.28894 -2.51717,-0.84586 -3.93544,-2.53138 C 422.28593,244.37479 420.68654,243 420.1456,243 c -0.54094,0 -2.25749,-0.62998 -3.81456,-1.39996 -4.43338,-2.19231 -9.64228,-3.58268 -11.83104,-3.15795 -14.69274,2.85111 -16.50943,3.62227 -22.51641,9.55791 -4.96315,4.90422 -7.45137,9.08736 -7.09651,11.93051 0.34566,2.76943 2.91037,7.06949 4.2165,7.06949 1.42825,0 4.89642,3.34276 4.89642,4.71936 0,0.70118 -1.575,3.01822 -3.5,5.14896 -1.925,2.13074 -3.5,4.15704 -3.5,4.50288 0,0.34584 1.39213,0.6288 3.09362,0.6288 2.25326,0 3.23578,-0.54363 3.61696,-2.00124 z M 249.5,275.26997 c 2.2,-0.29312 4.675,-1.05566 5.5,-1.69452 4.7246,-3.65862 19.70004,-5.44845 29.42068,-3.51629 4.24155,0.84308 6.73569,1.85817 7.05758,2.87236 0.2738,0.86266 1.5157,1.5906 2.75978,1.61764 1.24408,0.027 3.27446,0.39486 4.51196,0.81738 1.66744,0.56933 2.25,0.38414 2.25,-0.71525 0,-0.81592 2.72856,-3.95269 6.06347,-6.97061 5.88196,-5.32287 6.04222,-5.60039 5.35359,-9.27108 -0.99706,-5.31478 -11.15631,-15.91634 -16.25536,-16.96309 -6.20601,-1.27398 -22.87085,-0.93279 -24.6017,0.50369 -0.85214,0.70722 -2.40693,1.06159 -3.45509,0.78749 -1.29632,-0.339 -2.58671,0.4227 -4.03526,2.38197 -1.17124,1.58419 -2.74917,2.88034 -3.50652,2.88034 -0.80748,0 -2.09822,2.37813 -3.12083,5.75 -0.95912,3.1625 -2.40744,6.29088 -3.2185,6.95196 -0.81106,0.66107 -1.19774,1.92356 -0.8593,2.80553 0.6114,1.59327 0.18713,2.10125 -7.74092,9.26823 -3.96107,3.58082 -4.58625,4.82636 -1.87358,3.73274 0.9625,-0.38804 3.55,-0.94536 5.75,-1.23849 z M 233.49364,254.75 c -0.0793,-9.18213 1.52582,-15.35258 4.68883,-18.025 2.60611,-2.20189 2.20741,-2.62354 -1.89034,-1.99916 -2.57865,0.39292 -3.42748,1.15425 -4.32755,3.88148 -0.61583,1.86597 -1.54592,3.39268 -2.06688,3.39268 -1.52659,0 -3.17063,5.18033 -2.97839,9.38484 0.20416,4.46532 3.51801,11.61516 5.38345,11.61516 0.91993,0 1.24281,-2.23679 1.19088,-8.25 z m 222.33368,2.96928 c 0.69517,-2.3544 1.25872,-5.1669 1.25235,-6.25 -0.0524,-8.90182 -1.25872,-11.8227 -6.75312,-16.35164 -2.04334,-1.6843 -3.87909,-2.89843 -4.07944,-2.69808 -0.20035,0.20035 0.3269,2.01848 1.17167,4.04028 0.84476,2.02181 1.44605,3.98295 1.33619,4.35809 -0.10985,0.37514 0.58847,1.86064 1.55184,3.30111 1.49644,2.23752 2.19796,6.56224 2.61662,16.13096 0.13707,3.13265 1.61096,1.84816 2.90389,-2.53072 z M 202.58088,239.55025 c 4.80386,-4.75611 11.80757,-9.47794 15.00742,-10.11786 l 2.9117,-0.5823 -0.30897,-10.67504 c -0.38462,-13.28863 -0.55915,-15.42074 -1.36556,-16.68267 -0.35414,-0.55418 -0.9721,-2.80418 -1.37322,-5 -0.40113,-2.19581 -1.56698,-5.18685 -2.59079,-6.64675 -1.0238,-1.4599 -1.86146,-3.1474 -1.86146,-3.75 0,-0.6026 -0.401,-1.09563 -0.89112,-1.09563 -0.49011,0 -2.9985,-1.74144 -5.57419,-3.86987 -3.68737,-3.04706 -5.47514,-3.8491 -8.40835,-3.77219 l -3.72527,0.0977 0.007,9.6711 0.007,9.67109 3.62896,1.6011 c 1.99593,0.8806 4.32265,1.60109 5.17049,1.60109 0.84785,0 2.10174,0.675 2.78643,1.5 0.68469,0.825 2.08979,1.5 3.12244,1.5 1.03266,0 1.87756,0.43417 1.87756,0.96482 0,1.23571 -3.14396,2.93154 -5.04156,2.71937 -0.80214,-0.0897 -3.73585,0.45794 -6.51935,1.21696 l -5.06091,1.38002 0.17539,4.10942 C 194.8319,219.9121 194.87108,220 197.5,220 c 1.375,0 2.5,0.45381 2.5,1.00847 0,0.59779 0.81448,0.49983 2,-0.24054 1.59916,-0.9987 2.40084,-0.9987 4,0 1.18552,0.74037 2,0.83833 2,0.24054 0,-0.55466 1.125,-1.00847 2.5,-1.00847 5.524,0 0.27861,6.11785 -6.5,7.58113 -1.375,0.29682 -3.28139,0.96249 -4.23643,1.47927 -0.95504,0.51678 -2.41754,0.9396 -3.25,0.9396 -1.57761,0 -1.72504,0.5923 -1.99135,8 -0.24619,6.84823 2.22694,7.32399 8.05866,1.55025 z m 285.18427,-6.8833 c -0.10434,-4.58069 -0.33751,-5.00815 -3.43854,-6.30384 C 482.49697,225.59864 481,224.57133 481,224.0802 c 0,-0.49113 -0.84921,-0.67089 -1.88714,-0.39946 -1.03793,0.27142 -2.18949,0.004 -2.55902,-0.59362 C 476.18431,222.4892 474.83862,222 473.56343,222 c -2.49217,0 -5.31366,-2.58019 -4.12712,-3.77417 0.39672,-0.3992 4.59225,-0.95083 9.32341,-1.22583 l 8.6021,-0.5 0.27247,-4.7575 c 0.23903,-4.1737 -0.0473,-4.96699 -2.33309,-6.46472 -1.43306,-0.93897 -4.22458,-1.7231 -6.20338,-1.7425 -2.91118,-0.0285 -3.59782,-0.41441 -3.59782,-2.02181 0,-2.38267 4.00046,-4.518 8.80255,-4.69853 l 3.41174,-0.12826 V 186.34334 176 h -3.18133 c -2.6125,0 -4.3303,1.18968 -9.60715,6.65353 -6.42297,6.65059 -6.71199,7.28342 -7.00893,15.34647 -0.0304,0.825 -0.48382,4.65 -1.00763,8.5 -1.96025,14.40769 -2.02328,17.16048 -0.42332,18.48833 0.83274,0.69111 1.51407,2.10146 1.51407,3.13411 0,1.12077 0.70538,1.87832 1.75,1.87944 0.9625,0.001 5.125,2.19485 9.25,4.87514 4.78837,3.11133 7.74894,4.48108 8.18854,3.78854 0.3787,-0.59659 0.63817,-3.29596 0.57661,-5.99861 z m -165.24682,2.08337 c 1.22227,0.68402 2.52195,0.0245 5.26343,-2.67101 2.00221,-1.96862 3.518,-4.17519 3.36844,-4.9035 -0.14957,-0.7283 0.14506,-1.8533 0.65473,-2.5 1.71773,-2.17953 2.02213,-7.10957 0.60783,-9.84451 -0.76923,-1.48753 -1.14125,-3.37528 -0.82669,-4.19499 0.4267,-1.11198 0.045,-1.35259 -1.50343,-0.94767 -2.59908,0.67968 -8.53283,-2.06559 -10.48316,-4.85007 -0.84679,-1.20896 -2.10024,-1.86039 -2.95129,-1.53381 -1.54983,0.59473 -12.51732,-7.59738 -15.85928,-11.84599 -1.11339,-1.41545 -2.47349,-2.1333 -3.38163,-1.78482 -1.42032,0.54503 -9.98187,-3.17661 -10.9642,-4.76605 -0.24479,-0.39608 -1.34702,-0.48428 -2.4494,-0.196 -1.10238,0.28828 -2.64167,-0.005 -3.42065,-0.65129 -1.09002,-0.90464 -1.88937,-0.88 -3.46971,0.10694 -1.5982,0.99809 -2.31968,1.01609 -3.25457,0.0812 -0.91667,-0.91667 -1.53393,-0.92499 -2.60616,-0.0351 -1.07535,0.89246 -1.88663,0.86525 -3.45781,-0.11596 -1.25085,-0.78117 -2.29346,-0.90781 -2.6688,-0.32417 -0.96504,1.50061 -8.81898,5.2265 -11.01712,5.2265 -1.08946,0 -2.28148,0.48646 -2.64894,1.08103 -0.36746,0.59456 -1.64581,0.83564 -2.84078,0.53572 -1.49191,-0.37445 -2.56421,0.0816 -3.42228,1.45565 -0.6873,1.10053 -2.248,2.45378 -3.46824,3.00722 -3.93819,1.78617 -6.15075,3.37034 -9.54794,6.83623 -4.68054,4.77518 -6.31649,7.5406 -5.58638,9.44325 0.77558,2.02113 1.52811,2.0386 6.06994,0.1409 1.97451,-0.825 4.3833,-1.5 5.35287,-1.5 0.96958,0 2.46935,-1.07822 3.33281,-2.39604 1.02722,-1.56772 3.34048,-2.84981 6.6915,-3.70865 2.81685,-0.72194 5.52763,-2.07139 6.02395,-2.99878 1.23414,-2.306 5.46531,-3.54847 11.48074,-3.37128 5.95031,0.17528 8.7833,1.7511 17.83869,9.92261 2.13114,1.92312 4.69562,3.7571 5.69885,4.07551 1.00322,0.31842 2.10481,1.46356 2.44798,2.54477 0.34316,1.08121 2.16618,2.61023 4.05115,3.39782 1.89092,0.79008 3.42722,2.15371 3.42722,3.04203 0,0.88552 0.42957,1.34456 0.9546,1.02007 0.97373,-0.6018 11.0454,6.09706 11.0454,7.34651 0,0.37782 1.3854,1.20989 3.07867,1.84902 1.69327,0.63914 3.32323,2.09728 3.62214,3.24032 0.41694,1.59436 0.85209,1.82211 1.86897,0.97817 0.83907,-0.69636 1.92114,-0.76673 2.94855,-0.19176 z M 365.5,235 c 0.33992,-0.55 1.71648,-1 3.05902,-1 1.34254,0 2.44098,-0.45965 2.44098,-1.02144 0,-0.56179 1.2375,-1.57214 2.75,-2.24523 1.5125,-0.67308 4.1192,-2.57593 5.79266,-4.22856 1.67346,-1.65262 4.75475,-4.35477 6.84732,-6.00477 2.09257,-1.65 4.53588,-3.7875 5.42958,-4.75 0.89371,-0.9625 2.15177,-1.75 2.79569,-1.75 0.64393,0 1.41351,-0.63257 1.71019,-1.4057 0.29668,-0.77314 1.87769,-1.69964 3.51336,-2.0589 1.98951,-0.43696 3.16845,-1.42816 3.56154,-2.99436 0.35174,-1.40143 1.75636,-2.74862 3.4993,-3.35621 1.60143,-0.55826 3.1941,-1.90483 3.53928,-2.99238 0.94835,-2.98799 5.56466,-4.40417 12.87141,-3.94866 6.11418,0.38116 11.68967,2.60405 11.68967,4.66055 0,0.47203 2.03977,1.37185 4.53281,1.99961 2.49305,0.62775 5.93479,2.48117 7.64832,4.11871 2.35288,2.24854 4.05832,2.97734 6.96718,2.97734 3.59828,0 3.85169,-0.19404 3.85169,-2.9493 0,-2.15715 -1.31288,-4.34031 -4.88804,-8.12822 -2.74041,-2.90349 -5.3729,-4.87924 -5.99161,-4.49686 -0.60697,0.37513 -2.25281,-0.46717 -3.65742,-1.87178 C 442.05832,192.14923 440.0561,191 439.01356,191 c -1.04254,0 -2.13772,-0.39188 -2.43373,-0.87084 -0.29602,-0.47896 -1.88458,-1.14011 -3.53014,-1.46922 -1.64556,-0.32911 -4.74629,-1.70587 -6.89052,-3.05946 -2.75327,-1.73806 -4.21089,-2.14876 -4.96166,-1.39799 -0.61044,0.61044 -1.83681,0.72722 -2.88029,0.27427 -2.67027,-1.15908 -8.61477,-1.20353 -10.14842,-0.0759 -0.89432,0.65756 -2.00492,0.55805 -3.38402,-0.30321 -1.20315,-0.75138 -2.30777,-0.8976 -2.6688,-0.35327 -1.06536,1.60628 -9.75523,6.28302 -10.42675,5.6115 -0.35242,-0.35242 -3.23916,1.42821 -6.41499,3.95696 C 375.21666,201.32118 374.22013,202 372.52125,202 c -0.91434,0 -3.86442,1.85673 -6.55572,4.12608 -3.40553,2.87159 -5.51235,3.96419 -6.92941,3.59362 -1.17987,-0.30855 -2.03871,-0.0462 -2.04228,0.62392 -0.003,0.63601 -0.63888,2.36917 -1.41221,3.85147 -1.45729,2.79331 -1.08901,10.3733 0.55331,11.38831 0.47578,0.29405 0.86506,1.14504 0.86506,1.89109 0,1.33228 5.83669,8.14888 7.19098,8.39827 0.38004,0.07 0.9691,-0.32276 1.30902,-0.87276 z M 200.69445,145.75321 C 252.68293,61.095157 428.85041,52.726373 485,145.10049 c 0,0.49473 0.60986,0.89951 1.35525,0.89951 1.11588,0 1.35125,-6.41662 1.33256,-36.32932 l -0.0227,-36.329321 -292.76905,2.481889 c -0.33474,2.179467 -0.44477,75.818732 -0.11427,76.479552 3.44075,-0.17551 5.02648,-4.82723 5.91266,-6.54959 z"
       id="path2772"
       inkscape:connector-curvature="0"
       sodipodi:nodetypes="cscsccccccsscccccsccccccccscssssssscsssssssccscscccssscsscssscscsccccsssscssccccsccscsssscsccsccccscccsccsscscssscsccsccccssscccsccsccccccsscsccscccsccscsssccccccssccccssscccsscsccscccccccsscccccsccsscsscscscscsssccsscccscsssscsscsccssssssccsscsccccccscsscccscccscccccssccccssssssccccscsscccssssssccsccccssscccsscccsccscccscsssccsccccscccscccssccccccssssccccssccsscssscsssccscsccccsscccsscccscscscccccccsscccsccscccscccscccsccccscccscscccccsssccscscccscsscsssscsscsssccccssscccccscsccsscccc" />
  </g>
</svg>
