<?xml version="1.0" encoding="UTF-8" standalone="no"?>
<!-- Created with Inkscape (http://www.inkscape.org/) -->

<svg
   xmlns:dc="http://purl.org/dc/elements/1.1/"
   xmlns:cc="http://creativecommons.org/ns#"
   xmlns:rdf="http://www.w3.org/1999/02/22-rdf-syntax-ns#"
   xmlns:svg="http://www.w3.org/2000/svg"
   xmlns="http://www.w3.org/2000/svg"
   xmlns:sodipodi="http://sodipodi.sourceforge.net/DTD/sodipodi-0.dtd"
   xmlns:inkscape="http://www.inkscape.org/namespaces/inkscape"
   version="1.1"
   id="svg815"
   width="1248"
   height="1280"
   viewBox="0 0 1248 1280"
   sodipodi:docname="reproduction-.svg"
   inkscape:version="0.92.4 (5da689c313, 2019-01-14)">
  <metadata
     id="metadata821">
    <rdf:RDF>
      <cc:Work
         rdf:about="">
        <dc:format>image/svg+xml</dc:format>
        <dc:type
           rdf:resource="http://purl.org/dc/dcmitype/StillImage" />
        <dc:title></dc:title>
      </cc:Work>
    </rdf:RDF>
  </metadata>
  <defs
     id="defs819" />
  <sodipodi:namedview
     pagecolor="#ffffff"
     bordercolor="#666666"
     borderopacity="1"
     objecttolerance="10"
     gridtolerance="10"
     guidetolerance="10"
     inkscape:pageopacity="0"
     inkscape:pageshadow="2"
     inkscape:window-width="1920"
     inkscape:window-height="1001"
     id="namedview817"
     showgrid="false"
     inkscape:zoom="0.63125"
     inkscape:cx="624"
     inkscape:cy="796.37926"
     inkscape:window-x="-9"
     inkscape:window-y="-9"
     inkscape:window-maximized="1"
     inkscape:current-layer="svg815" />
  <path
     style="fill:#ff0000"
     d="m 409.47968,655.09626 c -3.70326,-0.5142 -9.32826,-1.5336 -12.5,-2.2653 -5.49564,-1.2678 -5.10547,-1.3088 8.29746,-0.8732 30.93618,1.0056 57.60529,-4.5596 84.93573,-17.724 27.48114,-13.2369 44.0793,-30.9509 57.97515,-61.8725 10.55603,-23.48971 13.21805,-28.68497 17.80335,-34.74541 9.64123,-12.74293 32.39173,-26.16446 104.29167,-61.52631 l 40.42983,-19.8842 v -3.78502 c 0,-2.08176 0.49625,-5.35704 1.10277,-7.27841 0.60653,-1.92137 1.20869,-6.6434 1.33813,-10.4934 0.33303,-9.90522 2.10285,-16.64312 7.13397,-27.15983 18.59847,-38.87699 65.29066,-66.57677 90.60346,-53.7498 21.92077,11.10809 14.52296,49.50485 -15.28008,79.30788 -11.94293,11.94294 -26.92633,21.55152 -39.89991,25.58709 -3.02409,0.94067 -10.44834,2.14015 -16.49834,2.66551 -20.76834,1.80342 -21.59748,1.95852 -26.7682,5.00729 -2.75971,1.62718 -23.74083,12.35846 -46.62473,23.84729 -89.42279,44.89461 -90.9087,46.04248 -121.03155,93.49692 -6.28346,9.8987 -14.44854,22.0477 -18.14462,26.9977 -17.68193,23.6806 -37.37147,36.2368 -67.431,43.0012 -8.43629,1.8985 -39.88981,2.8133 -49.73309,1.4465 z"
     id="path825"
     inkscape:connector-curvature="0"
     sodipodi:nodetypes="ccccssscscsssscccscscc" />
</svg>
